<svg width="349" height="88" viewBox="0 0 349 88" fill="none" xmlns="http://www.w3.org/2000/svg">
<g filter="url(#filter0_d_43_11)">
<rect x="3" y="3" width="341" height="80" rx="12" fill="white"/>
</g>
<path d="M344 27L173 27V3L332 3C338.627 3 344 8.37258 344 15V27Z" fill="#FFC4C4"/>
<path d="M235.836 15.4878H236.129V18H236.056C235.641 18 235.343 17.8682 235.162 17.6045C235.064 18.3076 234.813 18.8594 234.408 19.2598C233.841 19.8164 232.999 20.0947 231.881 20.0947C230.943 20.0947 230.255 19.8335 229.815 19.311C229.464 18.8911 229.278 18.3125 229.259 17.5752C229.239 16.7402 229.393 15.9028 229.72 15.063H230.431C230.24 15.9419 230.228 16.54 230.394 16.8574C230.609 17.2822 231.188 17.4946 232.13 17.4946C233.15 17.4946 233.814 17.3042 234.122 16.9233C234.464 16.5083 234.432 15.6123 234.027 14.2354C233.685 13.0684 233.324 12.2114 232.943 11.6646L234.92 9.81885C235.013 9.73584 235.064 9.69434 235.074 9.69434C235.084 9.69434 235.118 9.75293 235.177 9.87012C235.265 10.0508 235.401 10.3389 235.587 10.7344C235.772 11.125 235.912 11.4131 236.004 11.5986C236.136 11.8672 236.104 12.1138 235.909 12.3384C235.719 12.563 235.482 12.6313 235.199 12.5435V14.6821C235.199 14.8237 235.235 14.98 235.309 15.1509C235.382 15.3218 235.558 15.4341 235.836 15.4878ZM240.128 15.4878V18H239.52C238.963 18 238.487 17.7339 238.092 17.2017C237.696 17.7339 237.225 18 236.678 18H236.07V15.4878H237.03C237.176 15.4878 237.308 15.4341 237.425 15.3267C237.538 15.2144 237.594 15.0801 237.594 14.9238V14.1328H238.604V14.9238C238.604 15.0752 238.663 15.2095 238.78 15.3267C238.893 15.4341 239.024 15.4878 239.176 15.4878H240.128ZM237.264 20.1826L238.07 19.377C238.119 19.333 238.119 19.2866 238.07 19.2378L237.264 18.4321C237.22 18.3882 237.174 18.3882 237.125 18.4321L236.319 19.2378C236.275 19.2866 236.275 19.333 236.319 19.377L237.125 20.1826C237.174 20.2314 237.22 20.2314 237.264 20.1826ZM239.073 20.1826L239.879 19.377C239.923 19.333 239.923 19.2866 239.879 19.2378L239.073 18.4321C239.024 18.3882 238.978 18.3882 238.934 18.4321L238.128 19.2378C238.084 19.2866 238.084 19.333 238.128 19.377L238.934 20.1826C238.978 20.2314 239.024 20.2314 239.073 20.1826ZM240.458 15.4878C240.775 15.4878 240.975 15.3242 241.058 14.9971C241.122 14.7188 241.102 14.355 241 13.9058C240.843 13.2515 240.516 12.5044 240.018 11.6646C240.228 11.4741 240.545 11.1763 240.97 10.771C241.395 10.3706 241.712 10.0752 241.922 9.88477C242.059 9.75781 242.135 9.69678 242.149 9.70166C242.159 9.70166 242.206 9.78467 242.289 9.95068L243.08 11.606C243.211 11.8696 243.182 12.1138 242.992 12.3384C242.796 12.563 242.557 12.6338 242.274 12.5508V16.4912C242.274 17.4971 241.698 18 240.545 18H240.069V15.4878H240.458ZM244.193 12.0527C244.554 11.2031 245.055 10.7783 245.694 10.7783C246.661 10.7783 247.364 11.4619 247.804 12.8291C248.023 13.5176 248.146 14.2036 248.17 14.8872V16.3228C248.17 16.9624 247.97 17.4287 247.569 17.7217C247.34 17.8877 247.083 17.9805 246.8 18H245.394C244.671 18 244.146 17.8389 243.819 17.5166C243.463 17.1699 243.304 16.606 243.343 15.8247C243.363 15.4487 243.417 15.0044 243.504 14.4917H244.215C244.215 14.7358 244.217 14.8945 244.222 14.9678C244.232 15.1289 244.315 15.2607 244.471 15.3633C244.603 15.4463 244.74 15.4878 244.881 15.4878H246.764C247.213 15.4878 247.44 15.3462 247.445 15.063C247.445 14.8823 247.34 14.6064 247.13 14.2354C246.979 13.957 246.761 13.6982 246.478 13.459C246.175 13.2002 245.877 13.0366 245.584 12.9683C245.257 12.8901 244.984 12.9268 244.764 13.0781C244.657 13.1562 244.581 13.2417 244.537 13.3345H243.841C243.895 12.9097 244.012 12.4824 244.193 12.0527ZM253.583 15.9272L255.062 14.0889C255.433 14.4453 255.702 14.9238 255.868 15.5244C255.946 15.8223 255.99 16.0859 256 16.3154V18.1685C256 18.9546 255.882 19.5625 255.648 19.9922C255.111 21.0029 254.017 21.5083 252.367 21.5083C251.341 21.5083 250.592 21.2471 250.118 20.7246C249.737 20.3047 249.542 19.7261 249.532 18.9888C249.518 18.1538 249.688 17.3164 250.045 16.4766H250.814C250.609 17.3604 250.589 17.9585 250.755 18.271C250.985 18.6958 251.61 18.9082 252.63 18.9082C254.251 18.9082 255.062 18.5029 255.062 17.6924C255.062 17.3848 254.569 16.7964 253.583 15.9272ZM252.557 17.4946L253.37 16.689C253.414 16.645 253.414 16.5986 253.37 16.5498L252.557 15.7441C252.513 15.7002 252.469 15.7002 252.425 15.7441L251.612 16.5498C251.568 16.5986 251.568 16.645 251.612 16.689L252.425 17.4946C252.469 17.5435 252.513 17.5435 252.557 17.4946ZM257.303 15.5024H259.237C259.139 15.2632 258.973 15.0801 258.739 14.9531C258.529 14.8359 258.297 14.7773 258.043 14.7773C257.74 14.7773 257.494 14.897 257.303 15.1362C257.254 15.1997 257.225 15.2729 257.215 15.356C257.206 15.4536 257.235 15.5024 257.303 15.5024ZM260.394 14.7847L260.387 17.458C260.392 18.0488 260.394 18.7129 260.394 19.4502C260.394 20.0117 260.189 20.4927 259.779 20.8931C259.359 21.3032 258.841 21.5083 258.226 21.5083C257.708 21.5083 257.086 21.3203 256.358 20.9443C255.997 20.7588 255.687 20.5732 255.428 20.3877C255.58 20.3145 255.882 20.1729 256.336 19.9629C256.825 19.7383 257.198 19.5625 257.457 19.4355C258.399 18.9863 259.017 18.6396 259.31 18.3955C259.461 18.2734 259.557 18.1416 259.596 18C258.536 18.0049 257.828 18.0049 257.472 18C257.257 18 257.071 17.9438 256.915 17.8315C256.7 17.6802 256.593 17.4507 256.593 17.1431V14.7261C256.593 14.3843 256.664 14.0767 256.805 13.8032C257.098 13.2319 257.628 12.9463 258.395 12.9463C259.186 12.9512 259.754 13.2417 260.101 13.8179C260.296 14.145 260.394 14.4673 260.394 14.7847ZM264.305 10.771L265.96 14.6382C266.029 14.7798 266.126 14.9214 266.253 15.063C266.502 15.3462 266.791 15.4878 267.118 15.4878C267.176 15.4878 267.232 15.4878 267.286 15.4878V18H266.971C266.59 18 266.28 17.9048 266.041 17.7144C265.758 17.4946 265.421 17.0454 265.03 16.3667C264.42 17.4556 263.751 18 263.023 18H262.525C262.306 18 262.145 18 262.042 18C261.334 18 260.914 17.5215 260.782 16.5645C260.699 15.9395 260.733 15.2339 260.885 14.4478H261.595C261.6 14.7212 261.603 14.8945 261.603 14.9678C261.612 15.1289 261.69 15.2607 261.837 15.3633C261.959 15.4463 262.088 15.4878 262.225 15.4878H264.049C264.2 15.4878 264.308 15.4512 264.371 15.3779C264.425 15.3096 264.43 15.229 264.386 15.1362C263.829 13.9985 263.326 13.0073 262.877 12.1626L264.305 10.771ZM267.513 14.2061L268.919 12.1479C269.442 12.7827 269.703 13.437 269.703 14.1108V16.374C269.703 17.0576 269.413 17.5312 268.832 17.7949C268.534 17.9316 268.209 18 267.857 18H267.213V15.4878H268.121C268.38 15.4829 268.524 15.478 268.553 15.4731C268.68 15.4438 268.744 15.3584 268.744 15.2168C268.749 15.0312 268.338 14.6943 267.513 14.2061ZM268.187 20.1826L268.993 19.377C269.037 19.333 269.037 19.2866 268.993 19.2378L268.187 18.4321C268.138 18.3882 268.092 18.3882 268.048 18.4321L267.242 19.2378C267.193 19.2866 267.193 19.333 267.242 19.377L268.048 20.1826C268.092 20.2314 268.138 20.2314 268.187 20.1826ZM280.785 15.4878H281.217V18H280.543C279.962 18 279.518 17.7217 279.21 17.165C278.937 17.4873 278.6 17.7217 278.199 17.8682C277.94 17.9609 277.74 18.0049 277.599 18H273.006C272.323 17.9463 271.832 17.6973 271.534 17.2529C271.295 16.9014 271.18 16.4326 271.19 15.8467C271.205 15.1826 271.344 14.5259 271.607 13.8765H272.325C272.125 14.5942 272.179 15.0776 272.486 15.3267C272.638 15.4536 272.811 15.5073 273.006 15.4878H277.599C278.341 15.4878 278.897 15.2192 279.269 14.6821C279.454 14.4136 279.564 14.145 279.598 13.8765H280.455C280.421 13.9985 280.362 14.3159 280.279 14.8286C280.255 14.9897 280.294 15.1387 280.396 15.2754C280.499 15.417 280.628 15.4878 280.785 15.4878ZM275.006 14.748L275.812 13.9424C275.86 13.8984 275.86 13.8521 275.812 13.8032L275.006 12.9976C274.962 12.9536 274.916 12.9536 274.867 12.9976L274.061 13.8032C274.017 13.8521 274.017 13.8984 274.061 13.9424L274.867 14.748C274.916 14.7969 274.962 14.7969 275.006 14.748ZM276.815 14.748L277.621 13.9424C277.669 13.8984 277.669 13.8521 277.621 13.8032L276.815 12.9976C276.771 12.9536 276.725 12.9536 276.676 12.9976L275.87 13.8032C275.826 13.8521 275.826 13.8984 275.87 13.9424L276.676 14.748C276.725 14.7969 276.771 14.7969 276.815 14.748ZM284.864 15.5098V18.022H284.403C283.846 18.022 283.37 17.7559 282.975 17.2236C282.579 17.7559 282.108 18.022 281.561 18.022H281.1V15.5098H281.913C282.059 15.5098 282.191 15.4561 282.308 15.3486C282.42 15.2363 282.477 15.1021 282.477 14.9458V14.1548H283.487V14.9458C283.487 15.0972 283.546 15.2314 283.663 15.3486C283.775 15.4561 283.907 15.5098 284.059 15.5098H284.864ZM283.048 20.2046L283.861 19.3989C283.905 19.355 283.905 19.3086 283.861 19.2598L283.048 18.4541C283.004 18.4102 282.96 18.4102 282.916 18.4541L282.103 19.2598C282.059 19.3086 282.059 19.355 282.103 19.3989L282.916 20.2046C282.96 20.2534 283.004 20.2534 283.048 20.2046ZM288.849 15.4878V18H288.241C287.684 18 287.208 17.7339 286.812 17.2017C286.417 17.7339 285.946 18 285.399 18H284.791V15.4878H285.75C285.897 15.4878 286.029 15.4341 286.146 15.3267C286.258 15.2144 286.314 15.0801 286.314 14.9238V14.1328H287.325V14.9238C287.325 15.0752 287.384 15.2095 287.501 15.3267C287.613 15.4341 287.745 15.4878 287.896 15.4878H288.849ZM285.985 20.1826L286.791 19.377C286.839 19.333 286.839 19.2866 286.791 19.2378L285.985 18.4321C285.941 18.3882 285.895 18.3882 285.846 18.4321L285.04 19.2378C284.996 19.2866 284.996 19.333 285.04 19.377L285.846 20.1826C285.895 20.2314 285.941 20.2314 285.985 20.1826ZM287.794 20.1826L288.6 19.377C288.644 19.333 288.644 19.2866 288.6 19.2378L287.794 18.4321C287.745 18.3882 287.699 18.3882 287.655 18.4321L286.849 19.2378C286.805 19.2866 286.805 19.333 286.849 19.377L287.655 20.1826C287.699 20.2314 287.745 20.2314 287.794 20.1826ZM290.987 15.4878H293.895L293.39 18H288.768V15.4878H289.435C289.43 15.4536 289.425 15.4194 289.42 15.3853C289.337 14.7505 289.486 14.1938 289.867 13.7153C290.213 13.2759 290.67 12.9854 291.236 12.8438C291.808 12.7021 292.328 12.7534 292.796 12.9976C293.314 13.2661 293.651 13.7275 293.807 14.3818H290.987C290.836 14.3818 290.704 14.4355 290.592 14.543C290.484 14.6504 290.431 14.7822 290.431 14.9385C290.431 15.0898 290.484 15.2192 290.592 15.3267C290.704 15.4341 290.836 15.4878 290.987 15.4878ZM291.712 12.3604L292.518 11.5474C292.562 11.5034 292.562 11.4595 292.518 11.4155L291.712 10.6025C291.664 10.5586 291.617 10.5586 291.573 10.6025L290.768 11.4155C290.719 11.4595 290.719 11.5034 290.768 11.5474L291.573 12.3604C291.617 12.4043 291.664 12.4043 291.712 12.3604Z" fill="black"/>
<g clip-path="url(#clip0_43_11)">
<path d="M301.641 64.4414V54.5977H328.359V64.4414H301.641Z" fill="#FCE3A0"/>
<path d="M300.34 55.125V70.2422C300.34 70.9218 300.891 71.4727 301.57 71.4727C302.25 71.4727 302.801 70.9218 302.801 70.2422V55.125C302.801 54.4454 302.25 53.8945 301.57 53.8945C300.891 53.8945 300.34 54.4454 300.34 55.125ZM327.199 55.125V70.2422C327.199 70.9218 327.75 71.4727 328.43 71.4727C329.109 71.4727 329.66 70.9218 329.66 70.2422V55.125C329.66 54.4454 329.109 53.8945 328.43 53.8945C327.75 53.8945 327.199 54.4454 327.199 55.125Z" fill="#E4996D"/>
<path d="M332.473 55.1777C332.473 55.6003 332.301 55.9821 332.025 56.2591C331.748 56.5355 331.366 56.707 330.943 56.707H309.605C307.406 56.3319 305.785 55.2369 307.146 53.6484H330.943C331.788 53.6484 332.473 54.3333 332.473 55.1777Z" fill="#FFBE73"/>
<path d="M309.605 56.707H299.057C298.212 56.707 297.527 56.0222 297.527 55.1777C297.527 54.7552 297.699 54.3734 297.975 54.0963C298.252 53.82 298.634 53.6484 299.057 53.6484H307.146C307.182 55.2375 308.207 56.3323 309.605 56.707Z" fill="#FFB25A"/>
<path d="M324.84 55.7648C315.234 54.9474 312.432 50.726 314.838 41.6215H322.367C323.098 41.6215 323.708 42.1819 323.768 42.911L324.84 55.7648Z" fill="#93BCE8"/>
<path d="M323.539 58.4965H311.83C311.007 58.4965 310.36 57.7934 310.428 56.9735L311.6 42.911C311.661 42.1819 312.27 41.6215 313.001 41.6215H314.838C314.887 48.7195 317.489 53.1042 324.84 55.7648L324.94 56.9735C325.008 57.7934 324.361 58.4965 323.539 58.4965Z" fill="#7FB0E4"/>
<path d="M316.998 66.9377L321.224 71.1638C321.636 71.5757 322.303 71.5757 322.715 71.1638C323.127 70.7519 323.127 70.0841 322.715 69.6722L318.489 65.4462L316.998 66.9377Z" fill="#A8E1F6"/>
<path d="M318.37 66.9377L314.144 71.1638C313.732 71.5757 313.065 71.5757 312.653 71.1638C312.241 70.7519 312.241 70.0841 312.653 69.6722L316.879 65.4462L318.37 66.9377Z" fill="#A8E1F6"/>
<path d="M317.684 71.4727C317.005 71.4727 316.454 70.9218 316.454 70.2422V55.8281C316.454 55.1486 317.005 54.5977 317.684 54.5977C318.364 54.5977 318.915 55.1486 318.915 55.8281V70.2422C318.915 70.9218 318.364 71.4727 317.684 71.4727Z" fill="#C2EAFB"/>
<path d="M322.958 65.8477H312.411C311.246 65.8477 310.301 64.9033 310.301 63.7383C310.301 62.5733 311.246 61.6289 312.411 61.6289H322.958C324.123 61.6289 325.067 62.5733 325.067 63.7383C325.067 64.9033 324.123 65.8477 322.958 65.8477Z" fill="#7FB0E4"/>
<path d="M312.956 38.6367V45.668C312.956 46.833 312.012 47.7773 310.847 47.7773H310.729C303.483 46.7878 299.85 43.4996 303.23 36.5273H310.847C312.012 36.5273 312.956 37.4716 312.956 38.6367Z" fill="#FFA1AC"/>
<path d="M310.729 47.7773H308.848C308.654 47.7773 308.496 47.9348 308.496 48.1289V50.7987C308.496 51.4512 307.684 51.7514 307.259 51.2564L304.488 48.0227C304.354 47.8673 304.159 47.7773 303.954 47.7773H299.637C298.472 47.7773 297.527 46.833 297.527 45.668V38.6367C297.527 37.4716 298.472 36.5273 299.637 36.5273H303.23C302.78 42.0975 305.331 45.9035 310.729 47.7773Z" fill="#FF8A98"/>
<path d="M308.225 43.0439C308.465 43.2844 308.585 43.5987 308.585 43.9137C308.585 44.2287 308.465 44.5437 308.225 44.7841C307.745 45.2644 306.966 45.2644 306.485 44.7841L305.242 43.541L304.974 43.8082C303.637 42.3248 302.919 40.5387 303.198 38.4595C303.489 38.4757 303.776 38.5952 303.999 38.8174L305.242 40.0605L306.485 38.8174C306.725 38.5777 307.04 38.4574 307.355 38.4574C307.67 38.4574 307.984 38.5777 308.225 38.8174C308.705 39.2984 308.705 40.0774 308.225 40.5577L306.982 41.8008L308.225 43.0439Z" fill="#FFF8E6"/>
<path d="M304.974 43.8082L303.999 44.7841C303.758 45.0239 303.443 45.1441 303.128 45.1441C302.813 45.1441 302.498 45.0239 302.259 44.7841C301.778 44.3032 301.778 43.5241 302.259 43.0439L303.502 41.8008L302.259 40.5577C302.018 40.3172 301.898 40.0029 301.898 39.6879C301.898 39.3729 302.018 39.0579 302.259 38.8174C302.517 38.5594 302.861 38.4405 303.198 38.4595C303.307 40.5373 303.902 42.3239 304.974 43.8082Z" fill="#FFEAB7"/>
<path d="M310.422 64.4414H302.801M327.199 64.4414H324.946M302.801 56.707V70.2422C302.801 70.5818 302.663 70.8891 302.44 71.112C302.326 71.2264 302.19 71.3172 302.041 71.3791C301.892 71.441 301.732 71.4728 301.57 71.4727C300.891 71.4727 300.34 70.9214 300.34 70.2422V56.707M327.199 59.5195V56.707M329.66 56.707V70.2422C329.66 70.5818 329.522 70.8891 329.299 71.112C329.185 71.2264 329.05 71.3172 328.901 71.3791C328.751 71.441 328.591 71.4728 328.43 71.4727C327.75 71.4727 327.199 70.9214 327.199 70.2422V61.9805M310.705 53.6484H306.436M303.975 53.6484H299.057C298.634 53.6484 298.252 53.82 297.975 54.0963C297.699 54.3734 297.527 54.7552 297.527 55.1777C297.527 56.0222 298.212 56.707 299.057 56.707H310.451M324.663 53.6484H330.943C331.788 53.6484 332.473 54.3333 332.473 55.1777C332.473 55.6003 332.301 55.9821 332.025 56.2591C331.748 56.5355 331.366 56.707 330.943 56.707H324.918" stroke="black" stroke-miterlimit="10" stroke-linecap="round" stroke-linejoin="round"/>
<path d="M311.197 47.7478L310.428 56.9735C310.36 57.7934 311.007 58.4965 311.83 58.4965H316.453M312.956 41.6222C312.971 41.6215 312.986 41.6215 313.001 41.6215H322.367C323.098 41.6215 323.707 42.1819 323.768 42.911L324.94 56.9735C325.008 57.7934 324.361 58.4965 323.539 58.4965H318.914" stroke="black" stroke-miterlimit="10" stroke-linecap="round" stroke-linejoin="round"/>
<path d="M316.453 61.6289V55.8281C316.453 55.1489 317.005 54.5977 317.684 54.5977C318.024 54.5977 318.332 54.7355 318.554 54.9584C318.777 55.1813 318.914 55.4885 318.914 55.8281V61.6289M318.914 65.8477V70.2422C318.914 70.9214 318.364 71.4727 317.684 71.4727C317.005 71.4727 316.453 70.9214 316.453 70.2422V65.8477M322.958 65.8477H312.411C311.246 65.8477 310.301 64.9033 310.301 63.7383C310.301 62.5733 311.246 61.6289 312.411 61.6289H322.958C324.123 61.6289 325.067 62.5733 325.067 63.7383C325.067 64.9033 324.123 65.8477 322.958 65.8477Z" stroke="black" stroke-miterlimit="10" stroke-linecap="round" stroke-linejoin="round"/>
<path d="M318.891 65.8477L318.914 65.8709L322.715 69.672C322.921 69.878 323.024 70.148 323.024 70.418C323.024 70.688 322.921 70.958 322.715 71.164C322.303 71.5753 321.635 71.5753 321.224 71.164L318.914 68.8542M316.477 65.8477L316.453 65.8716L312.652 69.672C312.446 69.878 312.344 70.148 312.344 70.418C312.344 70.688 312.446 70.958 312.652 71.164C313.064 71.5753 313.732 71.5753 314.144 71.164L316.453 68.8542M297.527 43.0312V45.668C297.527 46.833 298.472 47.7773 299.637 47.7773H303.954C304.159 47.7773 304.354 47.8673 304.488 48.0227L307.259 51.2564C307.684 51.7514 308.496 51.4512 308.496 50.7987V48.1289C308.496 47.9348 308.654 47.7773 308.848 47.7773H310.847C312.012 47.7773 312.956 46.833 312.956 45.668V38.6367C312.956 37.4716 312.012 36.5273 310.847 36.5273H299.637C298.472 36.5273 297.527 37.4716 297.527 38.6367V40.5703" stroke="black" stroke-miterlimit="10" stroke-linecap="round" stroke-linejoin="round"/>
<path d="M303.999 44.7839L305.241 43.5409L306.484 44.7839C306.965 45.2644 307.744 45.2644 308.225 44.7839C308.705 44.3033 308.705 43.5242 308.225 43.0437L306.982 41.8008L308.225 40.5578C308.705 40.0773 308.705 39.2981 308.225 38.8176C307.744 38.3371 306.965 38.3371 306.484 38.8176L305.241 40.0606L303.999 38.8177C303.518 38.3372 302.739 38.3372 302.258 38.8177C301.778 39.2982 301.778 40.0773 302.258 40.5579L303.501 41.8008L302.258 43.0438C301.778 43.5243 301.778 44.3034 302.258 44.7839C302.739 45.2644 303.518 45.2644 303.999 44.7839Z" stroke="black" stroke-miterlimit="10" stroke-linecap="round" stroke-linejoin="round"/>
</g>
<defs>
<filter id="filter0_d_43_11" x="0" y="0" width="349" height="88" filterUnits="userSpaceOnUse" color-interpolation-filters="sRGB">
<feFlood flood-opacity="0" result="BackgroundImageFix"/>
<feColorMatrix in="SourceAlpha" type="matrix" values="0 0 0 0 0 0 0 0 0 0 0 0 0 0 0 0 0 0 127 0" result="hardAlpha"/>
<feOffset dx="1" dy="1"/>
<feGaussianBlur stdDeviation="2"/>
<feComposite in2="hardAlpha" operator="out"/>
<feColorMatrix type="matrix" values="0 0 0 0 0.333333 0 0 0 0 0.333333 0 0 0 0 0.333333 0 0 0 0.25 0"/>
<feBlend mode="normal" in2="BackgroundImageFix" result="effect1_dropShadow_43_11"/>
<feBlend mode="normal" in="SourceGraphic" in2="effect1_dropShadow_43_11" result="shape"/>
</filter>
<clipPath id="clip0_43_11">
<rect width="36" height="36" fill="white" transform="translate(297 36)"/>
</clipPath>
</defs>
</svg>
