<svg width="349" height="88" viewBox="0 0 349 88" fill="none" xmlns="http://www.w3.org/2000/svg">
<g filter="url(#filter0_d_43_12)">
<rect x="3" y="3" width="341" height="80" rx="12" fill="white"/>
</g>
<path d="M344 27L173 27V3L332 3C338.627 3 344 8.37258 344 15V27Z" fill="#E8FFE8"/>
<path d="M242.065 15.4878H242.358V18H242.285C241.87 18 241.572 17.8682 241.391 17.6045C241.293 18.3076 241.042 18.8594 240.637 19.2598C240.07 19.8164 239.228 20.0947 238.11 20.0947C237.172 20.0947 236.484 19.8335 236.044 19.311C235.693 18.8911 235.507 18.3125 235.488 17.5752C235.468 16.7402 235.622 15.9028 235.949 15.063H236.66C236.469 15.9419 236.457 16.54 236.623 16.8574C236.838 17.2822 237.417 17.4946 238.359 17.4946C239.379 17.4946 240.043 17.3042 240.351 16.9233C240.693 16.5083 240.661 15.6123 240.256 14.2354C239.914 13.0684 239.553 12.2114 239.172 11.6646L241.149 9.81885C241.242 9.73584 241.293 9.69434 241.303 9.69434C241.313 9.69434 241.347 9.75293 241.406 9.87012C241.494 10.0508 241.63 10.3389 241.816 10.7344C242.001 11.125 242.141 11.4131 242.233 11.5986C242.365 11.8672 242.333 12.1138 242.138 12.3384C241.948 12.563 241.711 12.6313 241.428 12.5435V14.6821C241.428 14.8237 241.464 14.98 241.538 15.1509C241.611 15.3218 241.787 15.4341 242.065 15.4878ZM246.357 15.4878V18H245.749C245.192 18 244.716 17.7339 244.321 17.2017C243.925 17.7339 243.454 18 242.907 18H242.299V15.4878H243.259C243.405 15.4878 243.537 15.4341 243.654 15.3267C243.767 15.2144 243.823 15.0801 243.823 14.9238V14.1328H244.833V14.9238C244.833 15.0752 244.892 15.2095 245.009 15.3267C245.122 15.4341 245.253 15.4878 245.405 15.4878H246.357ZM243.493 20.1826L244.299 19.377C244.348 19.333 244.348 19.2866 244.299 19.2378L243.493 18.4321C243.449 18.3882 243.403 18.3882 243.354 18.4321L242.548 19.2378C242.504 19.2866 242.504 19.333 242.548 19.377L243.354 20.1826C243.403 20.2314 243.449 20.2314 243.493 20.1826ZM245.302 20.1826L246.108 19.377C246.152 19.333 246.152 19.2866 246.108 19.2378L245.302 18.4321C245.253 18.3882 245.207 18.3882 245.163 18.4321L244.357 19.2378C244.313 19.2866 244.313 19.333 244.357 19.377L245.163 20.1826C245.207 20.2314 245.253 20.2314 245.302 20.1826ZM246.687 15.4878C247.004 15.4878 247.204 15.3242 247.287 14.9971C247.351 14.7188 247.331 14.355 247.229 13.9058C247.072 13.2515 246.745 12.5044 246.247 11.6646C246.457 11.4741 246.774 11.1763 247.199 10.771C247.624 10.3706 247.941 10.0752 248.151 9.88477C248.288 9.75781 248.364 9.69678 248.378 9.70166C248.388 9.70166 248.435 9.78467 248.518 9.95068L249.309 11.606C249.44 11.8696 249.411 12.1138 249.221 12.3384C249.025 12.563 248.786 12.6338 248.503 12.5508V16.4912C248.503 17.4971 247.927 18 246.774 18H246.298V15.4878H246.687ZM250.422 12.0527C250.783 11.2031 251.284 10.7783 251.923 10.7783C252.89 10.7783 253.593 11.4619 254.033 12.8291C254.252 13.5176 254.375 14.2036 254.399 14.8872V16.3228C254.399 16.9624 254.199 17.4287 253.798 17.7217C253.569 17.8877 253.312 17.9805 253.029 18H251.623C250.9 18 250.375 17.8389 250.048 17.5166C249.692 17.1699 249.533 16.606 249.572 15.8247C249.592 15.4487 249.646 15.0044 249.733 14.4917H250.444C250.444 14.7358 250.446 14.8945 250.451 14.9678C250.461 15.1289 250.544 15.2607 250.7 15.3633C250.832 15.4463 250.969 15.4878 251.11 15.4878H252.993C253.442 15.4878 253.669 15.3462 253.674 15.063C253.674 14.8823 253.569 14.6064 253.359 14.2354C253.208 13.957 252.99 13.6982 252.707 13.459C252.404 13.2002 252.106 13.0366 251.813 12.9683C251.486 12.8901 251.213 12.9268 250.993 13.0781C250.886 13.1562 250.81 13.2417 250.766 13.3345H250.07C250.124 12.9097 250.241 12.4824 250.422 12.0527ZM258.706 15.4878H259.138V18H258.024C257.556 18 257.158 17.79 256.831 17.3701C256.499 16.9551 256.333 16.4521 256.333 15.8613V12.126C256.171 12.1406 256.032 12.1016 255.915 12.0088C255.808 11.9209 255.734 11.8062 255.695 11.6646C255.656 11.5181 255.659 11.3765 255.703 11.2397C255.751 11.0884 255.839 10.9663 255.966 10.8735C256.718 10.3755 257.258 10.0093 257.585 9.7749C257.712 9.68701 257.819 9.66992 257.907 9.72363C257.995 9.78223 258.037 9.88477 258.032 10.0312V14.7114C258.032 14.9751 258.081 15.168 258.178 15.29C258.286 15.4219 258.461 15.4878 258.706 15.4878ZM259.284 14.2061L260.69 12.1479C261.213 12.7827 261.474 13.437 261.474 14.1108V16.374C261.474 17.0576 261.184 17.5312 260.603 17.7949C260.305 17.9316 259.98 18 259.628 18H258.984V15.4878H259.892C260.151 15.4829 260.295 15.478 260.324 15.4731C260.451 15.4438 260.515 15.3584 260.515 15.2168C260.52 15.0312 260.109 14.6943 259.284 14.2061ZM259.958 20.1826L260.764 19.377C260.808 19.333 260.808 19.2866 260.764 19.2378L259.958 18.4321C259.909 18.3882 259.863 18.3882 259.819 18.4321L259.013 19.2378C258.964 19.2866 258.964 19.333 259.013 19.377L259.819 20.1826C259.863 20.2314 259.909 20.2314 259.958 20.1826ZM272.556 15.4878H272.988V18H272.314C271.733 18 271.289 17.7217 270.981 17.165C270.708 17.4873 270.371 17.7217 269.97 17.8682C269.711 17.9609 269.511 18.0049 269.37 18H264.777C264.094 17.9463 263.603 17.6973 263.305 17.2529C263.066 16.9014 262.951 16.4326 262.961 15.8467C262.976 15.1826 263.115 14.5259 263.378 13.8765H264.096C263.896 14.5942 263.95 15.0776 264.257 15.3267C264.409 15.4536 264.582 15.5073 264.777 15.4878H269.37C270.112 15.4878 270.668 15.2192 271.04 14.6821C271.225 14.4136 271.335 14.145 271.369 13.8765H272.226C272.192 13.9985 272.133 14.3159 272.05 14.8286C272.026 14.9897 272.065 15.1387 272.167 15.2754C272.27 15.417 272.399 15.4878 272.556 15.4878ZM266.777 14.748L267.583 13.9424C267.631 13.8984 267.631 13.8521 267.583 13.8032L266.777 12.9976C266.733 12.9536 266.687 12.9536 266.638 12.9976L265.832 13.8032C265.788 13.8521 265.788 13.8984 265.832 13.9424L266.638 14.748C266.687 14.7969 266.733 14.7969 266.777 14.748ZM268.586 14.748L269.392 13.9424C269.44 13.8984 269.44 13.8521 269.392 13.8032L268.586 12.9976C268.542 12.9536 268.496 12.9536 268.447 12.9976L267.641 13.8032C267.597 13.8521 267.597 13.8984 267.641 13.9424L268.447 14.748C268.496 14.7969 268.542 14.7969 268.586 14.748ZM276.635 15.5098V18.022H276.174C275.617 18.022 275.141 17.7559 274.746 17.2236C274.35 17.7559 273.879 18.022 273.332 18.022H272.871V15.5098H273.684C273.83 15.5098 273.962 15.4561 274.079 15.3486C274.191 15.2363 274.248 15.1021 274.248 14.9458V14.1548H275.258V14.9458C275.258 15.0972 275.317 15.2314 275.434 15.3486C275.546 15.4561 275.678 15.5098 275.83 15.5098H276.635ZM274.819 20.2046L275.632 19.3989C275.676 19.355 275.676 19.3086 275.632 19.2598L274.819 18.4541C274.775 18.4102 274.731 18.4102 274.687 18.4541L273.874 19.2598C273.83 19.3086 273.83 19.355 273.874 19.3989L274.687 20.2046C274.731 20.2534 274.775 20.2534 274.819 20.2046ZM280.62 15.4878V18H280.012C279.455 18 278.979 17.7339 278.583 17.2017C278.188 17.7339 277.717 18 277.17 18H276.562V15.4878H277.521C277.668 15.4878 277.8 15.4341 277.917 15.3267C278.029 15.2144 278.085 15.0801 278.085 14.9238V14.1328H279.096V14.9238C279.096 15.0752 279.155 15.2095 279.272 15.3267C279.384 15.4341 279.516 15.4878 279.667 15.4878H280.62ZM277.756 20.1826L278.562 19.377C278.61 19.333 278.61 19.2866 278.562 19.2378L277.756 18.4321C277.712 18.3882 277.666 18.3882 277.617 18.4321L276.811 19.2378C276.767 19.2866 276.767 19.333 276.811 19.377L277.617 20.1826C277.666 20.2314 277.712 20.2314 277.756 20.1826ZM279.565 20.1826L280.371 19.377C280.415 19.333 280.415 19.2866 280.371 19.2378L279.565 18.4321C279.516 18.3882 279.47 18.3882 279.426 18.4321L278.62 19.2378C278.576 19.2866 278.576 19.333 278.62 19.377L279.426 20.1826C279.47 20.2314 279.516 20.2314 279.565 20.1826ZM282.758 15.4878H285.666L285.161 18H280.539V15.4878H281.206C281.201 15.4536 281.196 15.4194 281.191 15.3853C281.108 14.7505 281.257 14.1938 281.638 13.7153C281.984 13.2759 282.441 12.9854 283.007 12.8438C283.579 12.7021 284.099 12.7534 284.567 12.9976C285.085 13.2661 285.422 13.7275 285.578 14.3818H282.758C282.607 14.3818 282.475 14.4355 282.363 14.543C282.255 14.6504 282.202 14.7822 282.202 14.9385C282.202 15.0898 282.255 15.2192 282.363 15.3267C282.475 15.4341 282.607 15.4878 282.758 15.4878ZM283.483 12.3604L284.289 11.5474C284.333 11.5034 284.333 11.4595 284.289 11.4155L283.483 10.6025C283.435 10.5586 283.388 10.5586 283.344 10.6025L282.539 11.4155C282.49 11.4595 282.49 11.5034 282.539 11.5474L283.344 12.3604C283.388 12.4043 283.435 12.4043 283.483 12.3604Z" fill="black"/>
<g clip-path="url(#clip0_43_12)">
<path d="M301.641 60.4414V50.5977H328.359V60.4414H301.641Z" fill="#FCE3A0"/>
<path d="M300.34 51.125V66.2422C300.34 66.9218 300.891 67.4727 301.57 67.4727C302.25 67.4727 302.801 66.9218 302.801 66.2422V51.125C302.801 50.4454 302.25 49.8945 301.57 49.8945C300.891 49.8945 300.34 50.4454 300.34 51.125ZM327.199 51.125V66.2422C327.199 66.9218 327.75 67.4727 328.43 67.4727C329.109 67.4727 329.66 66.9218 329.66 66.2422V51.125C329.66 50.4454 329.109 49.8945 328.43 49.8945C327.75 49.8945 327.199 50.4454 327.199 51.125Z" fill="#E4996D"/>
<path d="M332.473 51.1777C332.473 51.6003 332.301 51.9821 332.025 52.2591C331.748 52.5355 331.366 52.707 330.943 52.707H309.605C307.406 52.3319 305.785 51.2369 307.146 49.6484H330.943C331.788 49.6484 332.473 50.3333 332.473 51.1777Z" fill="#FFBE73"/>
<path d="M309.605 52.707H299.057C298.212 52.707 297.527 52.0222 297.527 51.1777C297.527 50.7552 297.699 50.3734 297.975 50.0963C298.252 49.82 298.634 49.6484 299.057 49.6484H307.146C307.182 51.2375 308.207 52.3323 309.605 52.707Z" fill="#FFB25A"/>
<path d="M324.84 51.7648C315.234 50.9474 312.432 46.726 314.838 37.6215H322.367C323.098 37.6215 323.708 38.1819 323.768 38.911L324.84 51.7648Z" fill="#93BCE8"/>
<path d="M323.539 54.4965H311.83C311.007 54.4965 310.36 53.7934 310.428 52.9735L311.6 38.911C311.661 38.1819 312.27 37.6215 313.001 37.6215H314.838C314.887 44.7195 317.489 49.1042 324.84 51.7648L324.94 52.9735C325.008 53.7934 324.361 54.4965 323.539 54.4965Z" fill="#7FB0E4"/>
<path d="M316.998 62.9377L321.224 67.1638C321.636 67.5757 322.303 67.5757 322.715 67.1638C323.127 66.7519 323.127 66.0841 322.715 65.6722L318.489 61.4462L316.998 62.9377Z" fill="#A8E1F6"/>
<path d="M318.37 62.9377L314.144 67.1638C313.732 67.5757 313.065 67.5757 312.653 67.1638C312.241 66.7519 312.241 66.0841 312.653 65.6722L316.879 61.4462L318.37 62.9377Z" fill="#A8E1F6"/>
<path d="M317.684 67.4727C317.005 67.4727 316.454 66.9218 316.454 66.2422V51.8281C316.454 51.1486 317.005 50.5977 317.684 50.5977C318.364 50.5977 318.915 51.1486 318.915 51.8281V66.2422C318.915 66.9218 318.364 67.4727 317.684 67.4727Z" fill="#C2EAFB"/>
<path d="M322.958 61.8477H312.411C311.246 61.8477 310.301 60.9033 310.301 59.7383C310.301 58.5733 311.246 57.6289 312.411 57.6289H322.958C324.123 57.6289 325.067 58.5733 325.067 59.7383C325.067 60.9033 324.123 61.8477 322.958 61.8477Z" fill="#7FB0E4"/>
<path d="M312.956 34.6367V41.668C312.956 42.833 312.012 43.7773 310.847 43.7773H310.729C303.483 42.7878 299.85 39.4996 303.23 32.5273H310.847C312.012 32.5273 312.956 33.4716 312.956 34.6367Z" fill="#FFA1AC"/>
<path d="M310.729 43.7773H308.848C308.654 43.7773 308.496 43.9348 308.496 44.1289V46.7987C308.496 47.4512 307.684 47.7514 307.259 47.2564L304.488 44.0227C304.354 43.8673 304.159 43.7773 303.954 43.7773H299.637C298.472 43.7773 297.527 42.833 297.527 41.668V34.6367C297.527 33.4716 298.472 32.5273 299.637 32.5273H303.23C302.78 38.0975 305.331 41.9035 310.729 43.7773Z" fill="#FF8A98"/>
<path d="M308.225 39.0439C308.465 39.2844 308.585 39.5987 308.585 39.9137C308.585 40.2287 308.465 40.5437 308.225 40.7841C307.745 41.2644 306.966 41.2644 306.485 40.7841L305.242 39.541L304.974 39.8082C303.637 38.3248 302.919 36.5387 303.198 34.4595C303.489 34.4757 303.776 34.5952 303.999 34.8174L305.242 36.0605L306.485 34.8174C306.725 34.5777 307.04 34.4574 307.355 34.4574C307.67 34.4574 307.984 34.5777 308.225 34.8174C308.705 35.2984 308.705 36.0774 308.225 36.5577L306.982 37.8008L308.225 39.0439Z" fill="#FFF8E6"/>
<path d="M304.974 39.8082L303.999 40.7841C303.758 41.0239 303.443 41.1441 303.128 41.1441C302.813 41.1441 302.498 41.0239 302.259 40.7841C301.778 40.3032 301.778 39.5241 302.259 39.0439L303.502 37.8008L302.259 36.5577C302.018 36.3172 301.898 36.0029 301.898 35.6879C301.898 35.3729 302.018 35.0579 302.259 34.8174C302.517 34.5594 302.861 34.4405 303.198 34.4595C303.307 36.5373 303.902 38.3239 304.974 39.8082Z" fill="#FFEAB7"/>
<path d="M310.422 60.4414H302.801M327.199 60.4414H324.946M302.801 52.707V66.2422C302.801 66.5818 302.663 66.8891 302.44 67.112C302.326 67.2264 302.19 67.3172 302.041 67.3791C301.892 67.441 301.732 67.4728 301.57 67.4727C300.891 67.4727 300.34 66.9214 300.34 66.2422V52.707M327.199 55.5195V52.707M329.66 52.707V66.2422C329.66 66.5818 329.522 66.8891 329.299 67.112C329.185 67.2264 329.05 67.3172 328.901 67.3791C328.751 67.441 328.591 67.4728 328.43 67.4727C327.75 67.4727 327.199 66.9214 327.199 66.2422V57.9805M310.705 49.6484H306.436M303.975 49.6484H299.057C298.634 49.6484 298.252 49.82 297.975 50.0963C297.699 50.3734 297.527 50.7552 297.527 51.1777C297.527 52.0222 298.212 52.707 299.057 52.707H310.451M324.663 49.6484H330.943C331.788 49.6484 332.473 50.3333 332.473 51.1777C332.473 51.6003 332.301 51.9821 332.025 52.2591C331.748 52.5355 331.366 52.707 330.943 52.707H324.918" stroke="black" stroke-miterlimit="10" stroke-linecap="round" stroke-linejoin="round"/>
<path d="M311.197 43.7478L310.428 52.9735C310.36 53.7934 311.007 54.4965 311.83 54.4965H316.453M312.956 37.6222C312.971 37.6215 312.986 37.6215 313.001 37.6215H322.367C323.098 37.6215 323.707 38.1819 323.768 38.911L324.94 52.9735C325.008 53.7934 324.361 54.4965 323.539 54.4965H318.914" stroke="black" stroke-miterlimit="10" stroke-linecap="round" stroke-linejoin="round"/>
<path d="M316.453 57.6289V51.8281C316.453 51.1489 317.005 50.5977 317.684 50.5977C318.024 50.5977 318.332 50.7355 318.554 50.9584C318.777 51.1813 318.914 51.4885 318.914 51.8281V57.6289M318.914 61.8477V66.2422C318.914 66.9214 318.364 67.4727 317.684 67.4727C317.005 67.4727 316.453 66.9214 316.453 66.2422V61.8477M322.958 61.8477H312.411C311.246 61.8477 310.301 60.9033 310.301 59.7383C310.301 58.5733 311.246 57.6289 312.411 57.6289H322.958C324.123 57.6289 325.067 58.5733 325.067 59.7383C325.067 60.9033 324.123 61.8477 322.958 61.8477Z" stroke="black" stroke-miterlimit="10" stroke-linecap="round" stroke-linejoin="round"/>
<path d="M318.891 61.8477L318.914 61.8709L322.715 65.672C322.921 65.878 323.024 66.148 323.024 66.418C323.024 66.688 322.921 66.958 322.715 67.164C322.303 67.5753 321.635 67.5753 321.224 67.164L318.914 64.8542M316.477 61.8477L316.453 61.8716L312.652 65.672C312.446 65.878 312.344 66.148 312.344 66.418C312.344 66.688 312.446 66.958 312.652 67.164C313.064 67.5753 313.732 67.5753 314.144 67.164L316.453 64.8542M297.527 39.0312V41.668C297.527 42.833 298.472 43.7773 299.637 43.7773H303.954C304.159 43.7773 304.354 43.8673 304.488 44.0227L307.259 47.2564C307.684 47.7514 308.496 47.4512 308.496 46.7987V44.1289C308.496 43.9348 308.654 43.7773 308.848 43.7773H310.847C312.012 43.7773 312.956 42.833 312.956 41.668V34.6367C312.956 33.4716 312.012 32.5273 310.847 32.5273H299.637C298.472 32.5273 297.527 33.4716 297.527 34.6367V36.5703" stroke="black" stroke-miterlimit="10" stroke-linecap="round" stroke-linejoin="round"/>
<path d="M303.999 40.7839L305.241 39.5409L306.484 40.7839C306.965 41.2644 307.744 41.2644 308.225 40.7839C308.705 40.3033 308.705 39.5242 308.225 39.0437L306.982 37.8008L308.225 36.5578C308.705 36.0773 308.705 35.2981 308.225 34.8176C307.744 34.3371 306.965 34.3371 306.484 34.8176L305.241 36.0606L303.999 34.8177C303.518 34.3372 302.739 34.3372 302.258 34.8177C301.778 35.2982 301.778 36.0774 302.258 36.5579L303.501 37.8008L302.258 39.0438C301.778 39.5243 301.778 40.3034 302.258 40.7839C302.739 41.2644 303.518 41.2644 303.999 40.7839Z" stroke="black" stroke-miterlimit="10" stroke-linecap="round" stroke-linejoin="round"/>
</g>
<defs>
<filter id="filter0_d_43_12" x="0" y="0" width="349" height="88" filterUnits="userSpaceOnUse" color-interpolation-filters="sRGB">
<feFlood flood-opacity="0" result="BackgroundImageFix"/>
<feColorMatrix in="SourceAlpha" type="matrix" values="0 0 0 0 0 0 0 0 0 0 0 0 0 0 0 0 0 0 127 0" result="hardAlpha"/>
<feOffset dx="1" dy="1"/>
<feGaussianBlur stdDeviation="2"/>
<feComposite in2="hardAlpha" operator="out"/>
<feColorMatrix type="matrix" values="0 0 0 0 0.333333 0 0 0 0 0.333333 0 0 0 0 0.333333 0 0 0 0.25 0"/>
<feBlend mode="normal" in2="BackgroundImageFix" result="effect1_dropShadow_43_12"/>
<feBlend mode="normal" in="SourceGraphic" in2="effect1_dropShadow_43_12" result="shape"/>
</filter>
<clipPath id="clip0_43_12">
<rect width="36" height="36" fill="white" transform="translate(297 32)"/>
</clipPath>
</defs>
</svg>
