<svg xmlns="http://www.w3.org/2000/svg" version="1.1" xmlns:xlink="http://www.w3.org/1999/xlink" xmlns:svgjs="http://svgjs.com/svgjs" width="512" height="512" x="0" y="0" viewBox="0 0 24 24" style="enable-background:new 0 0 512 512" xml:space="preserve" class=""><g><path d="M20.004 5h-11c-.837 0-1.852.452-2.412 1.074L2.53 10.588a2.134 2.134 0 0 0 0 2.824l4.062 4.514C7.152 18.548 8.167 19 9.004 19h11c1.103 0 2-.897 2-2V7c0-1.103-.898-2-2-2zm-.003 12H9.004c-.265 0-.749-.216-.926-.412l-4.062-4.514c-.026-.028-.026-.12 0-.148l4.063-4.514C8.255 7.216 8.74 7 9.004 7h11z" fill="#000000" data-original="#000000" class=""></path><path d="M11.297 14.707a1 1 0 0 0 1.414 0l1.292-1.293 1.293 1.293a1.001 1.001 0 0 0 1.415-1.414L15.418 12l1.293-1.293a.999.999 0 1 0-1.414-1.414l-1.293 1.293-1.292-1.293a.999.999 0 1 0-1.414 1.414L12.59 12l-1.293 1.293a1 1 0 0 0 0 1.414z" fill="#000000" data-original="#000000" class=""></path></g></svg>