<svg xmlns="http://www.w3.org/2000/svg" version="1.1" xmlns:xlink="http://www.w3.org/1999/xlink" xmlns:svgjs="http://svgjs.com/svgjs" width="512" height="512" x="0" y="0" viewBox="0 0 512 512" style="enable-background:new 0 0 512 512" xml:space="preserve" class=""><g><path d="M186 144.5h140v380H186z" style="" transform="rotate(-90 256 334.5)" fill="#fce3a0" data-original="#fce3a0"></path><path d="M47.5 272v215c0 9.665 7.835 17.5 17.5 17.5s17.5-7.835 17.5-17.5V272c0-9.665-7.835-17.5-17.5-17.5s-17.5 7.835-17.5 17.5zM429.5 272v215c0 9.665 7.835 17.5 17.5 17.5s17.5-7.835 17.5-17.5V272c0-9.665-7.835-17.5-17.5-17.5s-17.5 7.835-17.5 17.5z" style="" fill="#e4996d" data-original="#e4996d"></path><path d="M504.5 272.75c0 6.01-2.44 11.44-6.37 15.38-3.94 3.93-9.37 6.37-15.38 6.37H179.27c-31.277-5.335-54.332-20.908-34.97-43.5h338.45c12.01 0 21.75 9.74 21.75 21.75z" style="" fill="#ffbe73" data-original="#ffbe73"></path><path d="M179.27 294.5H29.25c-12.01 0-21.75-9.74-21.75-21.75 0-6.01 2.44-11.44 6.37-15.38 3.94-3.93 9.37-6.37 15.38-6.37H144.3c.51 22.6 15.09 38.17 34.97 43.5z" style="" fill="#ffb25a" data-original="#ffb25a"></path><path d="M395.94 281.1C259.323 269.474 219.47 209.437 253.7 79.95h107.07c10.4 0 19.07 7.97 19.93 18.34l15.24 182.81z" style="" fill="#93bce8" data-original="#93bce8" class=""></path><path d="M377.44 319.95H210.91c-11.7 0-20.9-10-19.93-21.66l16.66-200c.87-10.37 9.53-18.34 19.93-18.34h26.13c.69 100.95 37.7 163.31 142.24 201.15l1.43 17.19c.97 11.66-8.23 21.66-19.93 21.66z" style="" fill="#7fb0e4" data-original="#7fb0e4" class=""></path><path d="m284.412 440.003 60.104 60.104c5.858 5.858 15.355 5.858 21.213 0 5.858-5.858 5.858-15.355 0-21.213l-60.104-60.104-21.213 21.213z" style="" fill="#a8e1f6" data-original="#a8e1f6"></path><path d="m303.932 440.003-60.104 60.104c-5.858 5.858-15.355 5.858-21.213 0-5.858-5.858-5.858-15.355 0-21.213l60.104-60.104 21.213 21.213z" style="" fill="#a8e1f6" data-original="#a8e1f6"></path><path d="M294.172 504.5c-9.665 0-17.5-7.835-17.5-17.5V282c0-9.665 7.835-17.5 17.5-17.5s17.5 7.835 17.5 17.5v205c0 9.665-7.835 17.5-17.5 17.5z" style="" fill="#c2eafb" data-original="#c2eafb"></path><path d="M369.172 424.5h-150c-16.569 0-30-13.431-30-30 0-16.569 13.431-30 30-30h150c16.569 0 30 13.431 30 30 0 16.569-13.431 30-30 30z" style="" fill="#7fb0e4" data-original="#7fb0e4" class=""></path><path d="M226.93 37.5v100c0 16.57-13.43 30-30 30h-1.67C92.198 153.426 40.536 106.661 88.61 7.5h108.32c16.57 0 30 13.43 30 30z" style="" fill="#ffa1ac" data-original="#ffa1ac" class=""></path><path d="M195.26 167.5H168.5c-2.76 0-5 2.24-5 5v37.97c0 9.28-11.55 13.55-17.59 6.51l-39.42-45.99c-1.9-2.21-4.67-3.49-7.59-3.49H37.5c-16.57 0-30-13.43-30-30v-100c0-16.57 13.43-30 30-30h51.11c-6.4 79.22 29.87 133.35 106.65 160z" style="" fill="#ff8a98" data-original="#ff8a98"></path><path d="M159.64 100.18c3.42 3.42 5.12 7.89 5.12 12.37s-1.7 8.96-5.12 12.38c-6.83 6.83-17.91 6.83-24.75 0l-17.68-17.68-3.8 3.8c-19.023-21.097-29.226-46.5-25.26-76.07 4.14.23 8.22 1.93 11.39 5.09l17.67 17.68 17.68-17.68c3.42-3.41 7.9-5.12 12.38-5.12s8.95 1.71 12.37 5.12c6.83 6.84 6.83 17.92 0 24.75L141.96 82.5l17.68 17.68z" style="" fill="#fff8e6" data-original="#fff8e6"></path><path d="m113.41 111.05-13.87 13.88c-3.42 3.41-7.9 5.12-12.38 5.12s-8.96-1.71-12.37-5.12c-6.84-6.84-6.84-17.92 0-24.75L92.47 82.5 74.79 64.82c-3.42-3.42-5.13-7.89-5.13-12.37s1.71-8.96 5.13-12.38c3.67-3.67 8.56-5.36 13.36-5.09 1.55 29.55 10.01 54.96 25.26 76.07z" style="" fill="#ffeab7" data-original="#ffeab7"></path><path d="M190.89 404.5H82.5M429.5 404.5h-32.05M82.5 294.5V487c0 4.83-1.96 9.2-5.13 12.37A17.436 17.436 0 0 1 65 504.5c-9.66 0-17.5-7.84-17.5-17.5V294.5M429.5 334.5v-40M464.5 294.5V487c0 4.83-1.96 9.2-5.13 12.37A17.436 17.436 0 0 1 447 504.5c-9.66 0-17.5-7.84-17.5-17.5V369.5M194.92 251H134.2M99.2 251H29.25c-6.01 0-11.44 2.44-15.38 6.37-3.93 3.94-6.37 9.37-6.37 15.38 0 12.01 9.74 21.75 21.75 21.75H191.3M393.43 251h89.32c12.01 0 21.75 9.74 21.75 21.75 0 6.01-2.44 11.44-6.37 15.38-3.94 3.93-9.37 6.37-15.38 6.37h-85.7" style="stroke-width:15;stroke-linecap:round;stroke-linejoin:round;stroke-miterlimit:10;" fill="none" stroke="#000000" stroke-width="15" stroke-linecap="round" stroke-linejoin="round" stroke-miterlimit="10" data-original="#000000" class=""></path><path d="m201.91 167.08-10.93 131.21c-.97 11.66 8.23 21.66 19.93 21.66h65.76M226.93 79.96c.21-.01.43-.01.64-.01h133.2c10.4 0 19.07 7.97 19.93 18.34l16.67 200c.97 11.66-8.23 21.66-19.93 21.66h-65.77" style="stroke-width:15;stroke-linecap:round;stroke-linejoin:round;stroke-miterlimit:10;" fill="none" stroke="#000000" stroke-width="15" stroke-linecap="round" stroke-linejoin="round" stroke-miterlimit="10" data-original="#000000" class=""></path><path d="M276.67 364.5V282c0-9.66 7.84-17.5 17.5-17.5 4.83 0 9.21 1.96 12.38 5.13 3.16 3.17 5.12 7.54 5.12 12.37v82.5M369.172 424.5h-150c-16.569 0-30-13.431-30-30v0c0-16.569 13.431-30 30-30h150c16.569 0 30 13.431 30 30v0c0 16.569-13.431 30-30 30zM311.67 424.5V487c0 9.66-7.83 17.5-17.5 17.5-9.66 0-17.5-7.84-17.5-17.5v-62.5" style="stroke-width:15;stroke-linecap:round;stroke-linejoin:round;stroke-miterlimit:10;" fill="none" stroke="#000000" stroke-width="15" stroke-linecap="round" stroke-linejoin="round" stroke-miterlimit="10" data-original="#000000" class=""></path><path d="m311.34 424.5.33.33 54.06 54.06c2.93 2.93 4.39 6.77 4.39 10.61s-1.46 7.68-4.39 10.61c-5.86 5.85-15.36 5.85-21.21 0l-32.85-32.85M277.01 424.5l-.34.34-54.06 54.05c-2.93 2.93-4.39 6.77-4.39 10.61s1.46 7.68 4.39 10.61c5.86 5.85 15.36 5.85 21.22 0l32.84-32.85M7.5 100v37.5c0 16.57 13.43 30 30 30h61.4c2.92 0 5.69 1.28 7.59 3.49l39.42 45.99c6.04 7.04 17.59 2.77 17.59-6.51V172.5c0-2.76 2.24-5 5-5h28.43c16.57 0 30-13.43 30-30v-100c0-16.57-13.43-30-30-30H37.5c-16.57 0-30 13.43-30 30V65" style="stroke-width:15;stroke-linecap:round;stroke-linejoin:round;stroke-miterlimit:10;" fill="none" stroke="#000000" stroke-width="15" stroke-linecap="round" stroke-linejoin="round" stroke-miterlimit="10" data-original="#000000" class=""></path><path d="m99.537 124.926 17.678-17.678 17.678 17.678c6.834 6.834 17.915 6.834 24.749 0h0c6.834-6.834 6.834-17.915 0-24.749L141.963 82.5l17.678-17.678c6.834-6.834 6.834-17.915 0-24.749h0c-6.834-6.834-17.915-6.834-24.749 0l-17.678 17.678-17.677-17.677c-6.834-6.834-17.915-6.834-24.749 0h0c-6.834 6.834-6.834 17.915 0 24.749L92.466 82.5l-17.678 17.678c-6.834 6.834-6.834 17.915 0 24.749h0c6.834 6.834 17.914 6.834 24.749-.001z" style="stroke-width:15;stroke-linecap:round;stroke-linejoin:round;stroke-miterlimit:10;" fill="none" stroke="#000000" stroke-width="15" stroke-linecap="round" stroke-linejoin="round" stroke-miterlimit="10" data-original="#000000" class=""></path></g></svg>