<svg xmlns="http://www.w3.org/2000/svg" version="1.1" xmlns:xlink="http://www.w3.org/1999/xlink" xmlns:svgjs="http://svgjs.com/svgjs" width="512" height="512" x="0" y="0" viewBox="0 0 44 58" style="enable-background:new 0 0 512 512" xml:space="preserve" class=""><g><g fill="none" fill-rule="nonzero"><rect width="44" height="58" fill="#ecf0f1" rx="4" data-original="#ecf0f1" class=""></rect><rect width="14" height="14" x="5" y="5" fill="#3b97d3" rx="2" data-original="#3b97d3" class=""></rect><g fill="#3f5c6c"><path d="M38 9H26a1 1 0 0 1 0-2h12a1 1 0 0 1 0 2zM38 13H26a1 1 0 0 1 0-2h12a1 1 0 0 1 0 2zM26 20a1 1 0 0 1-.378-1.926 4.706 4.706 0 0 0 1.457-.8c.345-.308.54-.75.537-1.212a1 1 0 0 1 1.928-.431 2.889 2.889 0 0 0 1.267 1.506.66.66 0 0 0 .4.117c-.03-.503.301-.956.789-1.081a1 1 0 0 1 1.17.566c.035.086.139.346.87.5l.622.138c1.064.298 2.165.443 3.27.431a1 1 0 1 1 .136 1.995 13.208 13.208 0 0 1-3.845-.475l-.6-.134a4.109 4.109 0 0 1-1.126-.406c-.182.153-.39.272-.614.352a2.447 2.447 0 0 1-2-.235 4.363 4.363 0 0 1-.963-.7c-.14.192-.299.37-.473.531a6.372 6.372 0 0 1-2.063 1.185A1.009 1.009 0 0 1 26 20zM27 27h-5a1 1 0 0 1 0-2h5a1 1 0 0 1 0 2zM38 27h-7a1 1 0 0 1 0-2h7a1 1 0 0 1 0 2zM30 31h-8a1 1 0 0 1 0-2h8a1 1 0 0 1 0 2zM27 38h-5a1 1 0 0 1 0-2h5a1 1 0 0 1 0 2zM38 38h-7a1 1 0 0 1 0-2h7a1 1 0 0 1 0 2zM30 42h-8a1 1 0 0 1 0-2h8a1 1 0 0 1 0 2zM27 50h-5a1 1 0 0 1 0-2h5a1 1 0 0 1 0 2zM38 50h-7a1 1 0 0 1 0-2h7a1 1 0 0 1 0 2zM30 54h-8a1 1 0 0 1 0-2h8a1 1 0 0 1 0 2z" fill="#3f5c6c" data-original="#3f5c6c"></path></g><path fill="#24ae5f" d="M7.919 23.606a1 1 0 0 0-1.838 0l-3 7a1 1 0 1 0 1.838.788l.6-1.394h2.968l.6 1.394a1 1 0 0 0 1.838-.788zM6.374 28 7 26.539 7.626 28zM13 29h1v1a1 1 0 0 0 2 0v-1h1a1 1 0 0 0 0-2h-1v-1a1 1 0 0 0-2 0v1h-1a1 1 0 0 0 0 2z" data-original="#24ae5f"></path><path fill="#e64c3c" d="M17 38h-4a1 1 0 0 0 0 2h4a1 1 0 0 0 0-2z" data-original="#e64c3c"></path><path fill="#24ae5f" d="M7.919 46.606a1 1 0 0 0-1.838 0l-3 7a1 1 0 1 0 1.838.788l.6-1.394h2.968l.6 1.394a1 1 0 0 0 1.838-.788zM6.374 51 7 49.539 7.626 51zM17 50h-1v-1a1 1 0 0 0-2 0v1h-1a1 1 0 0 0 0 2h1v1a1 1 0 0 0 2 0v-1h1a1 1 0 0 0 0-2z" data-original="#24ae5f"></path><path fill="#e64c3c" d="M7 34H5a1 1 0 0 0-1 1v8a1 1 0 0 0 1 1h2a2.987 2.987 0 0 0 2.22-5A2.987 2.987 0 0 0 7 34zm-1 2h1a1 1 0 0 1 0 2H6zm1 6H6v-2h1a1 1 0 0 1 0 2z" data-original="#e64c3c"></path><circle cx="12" cy="12" r="3" fill="#fdd7ad" data-original="#fdd7ad"></circle><path fill="#4fba6f" d="M16 19a4 4 0 1 0-8 0z" data-original="#4fba6f" class=""></path><path fill="#2980ba" d="M17 20H7a3 3 0 0 1-3-3V7a3 3 0 0 1 3-3h10a3 3 0 0 1 3 3v10a3 3 0 0 1-3 3zM7 6a1 1 0 0 0-1 1v10a1 1 0 0 0 1 1h10a1 1 0 0 0 1-1V7a1 1 0 0 0-1-1z" data-original="#2980ba" class=""></path></g></g></svg>