<svg width="311" height="218" viewBox="0 0 311 218" fill="none" xmlns="http://www.w3.org/2000/svg">
<circle cx="164" cy="116" r="102" fill="#F6F5FA"/>
<g clip-path="url(#clip0_11_391)">
<path d="M237.921 23.3226L186.789 181.313C184.632 187.973 178.327 192.398 171.333 192.167C100.831 189.825 106.319 190.123 103.882 189.66C98.1418 188.579 85.7825 184.29 89.3084 167.485C94.0962 144.664 117.293 19.5905 117.293 19.5905C117.293 19.5905 119.895 7.94878 131.838 7.1075C176.11 3.98572 157.796 5.2765 220.778 0.839196C221.615 0.78017 222.455 0.906649 223.238 1.20961C224.02 1.51257 224.727 1.98454 225.306 2.59185L235.653 13.4047C236.891 14.6994 237.755 16.3049 238.154 18.051C238.553 19.797 238.473 21.6186 237.921 23.3226Z" fill="#52528C"/>
<path d="M237.921 23.3226L186.789 181.313C184.632 187.973 178.327 192.398 171.333 192.167C100.831 189.825 106.319 190.123 103.882 189.66C180.071 143.278 172.252 34.4283 168.508 4.52183L220.778 0.839196C221.615 0.78017 222.455 0.906649 223.238 1.20961C224.02 1.51257 224.727 1.98454 225.306 2.59185L235.653 13.4047C236.891 14.6994 237.755 16.3049 238.154 18.051C238.553 19.797 238.473 21.6186 237.921 23.3226Z" fill="#404077"/>
<path d="M220.015 22.2133C220.015 22.2133 177.918 158.594 173.654 167.712C169.394 176.834 158.103 176.088 158.103 176.088H111.746C92.6034 176.088 96.6943 162.582 96.6943 162.582L120.646 32.9024C120.646 32.9024 122.662 21.3143 125.355 18.6956C128.048 16.0811 133.805 15.2811 133.805 15.2811L145.146 14.7326C144.746 20.9143 151.624 20.9143 151.624 20.9143C156.096 20.831 189.082 20.0693 192.995 17.9245C197.185 15.6316 198.48 9.65195 198.48 9.65195L211.837 9.04987C224.7 9.04987 220.015 22.2133 220.015 22.2133Z" fill="#BAEDFE"/>
<path d="M220.015 22.2133C220.015 22.2133 177.918 158.594 173.654 167.712C169.394 176.834 158.103 176.088 158.103 176.088H122.073C170.471 132.251 172.557 58.0252 170.009 20.3122C180.042 19.8545 190.851 19.0998 192.995 17.9245C197.185 15.6316 198.48 9.65195 198.48 9.65195L211.837 9.04987C224.7 9.04987 220.015 22.2133 220.015 22.2133Z" fill="#9AE1FF"/>
<path d="M180.042 42.4781V85.1562C180.042 89.2554 176.718 92.5792 172.619 92.5792H158.586V109.747C158.586 112.267 155.513 113.504 153.769 111.685L135.442 92.5792H86.0175C81.9184 92.5792 78.5945 89.2554 78.5945 85.1562V42.4781C78.5945 38.379 81.9184 35.0551 86.0175 35.0551H172.619C176.718 35.0551 180.042 38.379 180.042 42.4781Z" fill="#FBF5F7"/>
<path d="M180.042 42.4781V85.1562C180.042 89.2554 176.718 92.5792 172.619 92.5792H158.586V109.747C158.586 112.267 155.513 113.504 153.769 111.685L135.442 92.5792H122.349C132.04 87.2965 137.562 80.488 140.408 73.2712H158.586C158.804 73.2712 159.014 73.1843 159.169 73.0296C159.323 72.8749 159.41 72.6651 159.41 72.4464C159.41 71.9887 159.043 71.6216 158.586 71.6216H141.01C142.989 65.7327 143.29 59.6335 142.709 53.9095H158.586C159.043 53.9095 159.41 53.5425 159.41 53.0848C159.41 52.866 159.323 52.6562 159.169 52.5015C159.014 52.3469 158.804 52.26 158.586 52.26H142.511C141.628 45.5999 139.612 39.5419 137.764 35.0551H172.619C176.718 35.0551 180.042 38.379 180.042 42.4781Z" fill="#EDE3E7"/>
<path d="M236.249 12.8344L225.903 2.02276C225.241 1.32626 224.433 0.785106 223.536 0.43821C222.64 0.0913131 221.678 -0.0527103 220.72 0.0164928L131.78 6.2848C119.368 7.15907 116.515 19.2882 116.482 19.44C116.482 19.44 115.432 25.1004 113.733 34.2303H86.0167C81.4689 34.2303 77.7689 37.9303 77.7689 42.4781V85.1546C77.7689 89.7024 81.4689 93.4023 86.0167 93.4023H102.678C94.9758 134.385 90.3369 158.569 88.5009 167.316C87.0988 174.002 88.004 179.463 91.1918 183.547C96.5223 190.376 106.219 190.827 106.634 190.843L171.304 192.991C178.765 193.232 185.357 188.409 187.572 181.567L238.704 23.5771C239.305 21.7317 239.393 19.7582 238.961 17.8664C238.528 15.9747 237.591 14.2357 236.249 12.8344ZM79.4185 85.1546V42.4781C79.4185 38.84 82.3786 35.8799 86.0167 35.8799H172.618C176.256 35.8799 179.217 38.84 179.217 42.4781V85.1546C179.217 88.7927 176.256 91.7528 172.618 91.7528H158.586C158.368 91.7528 158.158 91.8397 158.003 91.9944C157.849 92.149 157.762 92.3588 157.762 92.5776V109.747C157.762 111.524 155.594 112.397 154.364 111.113L136.038 92.0064C135.961 91.9261 135.869 91.8621 135.767 91.8185C135.664 91.7748 135.554 91.7523 135.443 91.7524H86.0167C82.3786 91.7528 79.4185 88.7927 79.4185 85.1546ZM135.091 93.4023L153.173 112.255C155.439 114.618 159.411 113.012 159.411 109.747V93.4023H172.618C177.166 93.4023 180.866 89.7024 180.866 85.1546V42.4781C180.866 37.9303 177.166 34.2303 172.618 34.2303H121.24L121.458 33.0439C122.007 29.8936 123.879 21.2813 125.93 19.2878C128.293 16.9937 133.417 16.1739 133.885 16.1034L144.312 15.599C144.38 17.1385 144.896 18.4317 145.852 19.452C147.967 21.7077 151.46 21.7391 151.638 21.7391C155.285 21.7391 189.249 20.9168 193.391 18.6482C197.078 16.63 198.656 12.1119 199.126 10.4487L211.837 9.87506C215.162 9.87506 217.501 10.7988 218.789 12.6207C221.255 16.1104 219.257 21.8801 219.226 21.9704C218.805 23.3338 177.098 158.401 172.906 167.364C168.942 175.853 158.263 175.271 158.157 175.266C158.108 175.262 158.146 175.264 111.746 175.264C105.368 175.264 101.009 173.754 98.7892 170.776C96.192 167.291 97.47 162.865 97.4828 162.822C97.5042 162.752 96.973 165.61 110.309 93.4032H135.091V93.4023ZM237.136 23.0686L186.004 181.059C183.973 187.332 177.952 191.566 171.36 191.343L106.694 189.194C106.601 189.191 97.3368 188.749 92.4858 182.524C89.616 178.841 88.8181 173.838 90.115 167.655C91.9584 158.875 96.6176 134.581 104.356 93.4028H108.632L95.8905 162.392C95.7293 162.958 94.4913 167.751 97.4551 171.745C99.9996 175.174 104.808 176.913 111.746 176.913C165.312 176.913 157.907 176.923 158.619 176.923C161.042 176.923 170.518 176.375 174.401 168.062C178.64 158.996 219.083 28.0272 220.792 22.4896C220.887 22.2212 223.098 15.8658 220.14 11.6731C218.269 9.021 215.058 8.2255 211.8 8.2255L198.443 8.82759C198.261 8.83601 198.087 8.90416 197.948 9.02144C197.809 9.13873 197.713 9.29861 197.674 9.47628C197.661 9.53236 196.401 15.1202 192.599 17.2007C189.658 18.8111 166.474 19.8107 151.626 20.0891C151.596 20.0891 148.674 20.0565 147.05 18.3171C146.237 17.4461 145.873 16.258 145.969 14.7854C145.976 14.6695 145.959 14.5533 145.918 14.4445C145.878 14.3356 145.815 14.2366 145.733 14.1538C145.652 14.071 145.554 14.0064 145.445 13.9642C145.337 13.9219 145.221 13.903 145.105 13.9086C133.447 14.4724 133.747 14.4559 133.691 14.4637C133.445 14.4979 127.634 15.333 124.78 18.1039C122.047 20.7609 120.251 30.4846 119.562 34.2299H115.411C117.072 25.2996 118.098 19.7707 118.098 19.7699C118.124 19.6528 120.699 8.71872 131.895 7.92982L220.835 1.66151C221.552 1.61043 222.271 1.71845 222.94 1.97782C223.61 2.23719 224.214 2.6415 224.71 3.16178L235.056 13.9746C236.193 15.1609 236.986 16.6331 237.352 18.2344C237.719 19.8357 237.644 21.5064 237.136 23.0686Z" fill="black"/>
<path d="M96.3264 53.9108H158.586C158.805 53.9108 159.015 53.8239 159.17 53.6692C159.324 53.5145 159.411 53.3047 159.411 53.086C159.411 52.8672 159.324 52.6575 159.17 52.5028C159.015 52.3481 158.805 52.2612 158.586 52.2612H96.3264C96.1077 52.2612 95.8979 52.3481 95.7432 52.5028C95.5885 52.6575 95.5016 52.8672 95.5016 53.086C95.5016 53.3047 95.5885 53.5145 95.7432 53.6692C95.8979 53.8239 96.1077 53.9108 96.3264 53.9108ZM159.411 72.4447C159.411 72.226 159.324 72.0162 159.17 71.8615C159.015 71.7069 158.805 71.62 158.586 71.62H96.3264C96.1077 71.62 95.8979 71.7069 95.7432 71.8615C95.5885 72.0162 95.5016 72.226 95.5016 72.4447C95.5016 72.6635 95.5885 72.8733 95.7432 73.028C95.8979 73.1826 96.1077 73.2695 96.3264 73.2695H158.586C158.805 73.2695 159.015 73.1826 159.17 73.028C159.324 72.8733 159.411 72.6635 159.411 72.4447Z" fill="black"/>
</g>
<line x1="308.527" y1="25.8676" x2="244.662" y2="82.7027" stroke="#E6E3F5" stroke-width="5"/>
<line x1="72.5393" y1="148.506" x2="1.38572" y2="195.9" stroke="#E6E3F5" stroke-width="5"/>
<line x1="64.947" y1="178.069" x2="24.404" y2="205.587" stroke="#E6E3F5" stroke-width="5"/>
<line x1="296.947" y1="76.0685" x2="256.404" y2="103.587" stroke="#E6E3F5" stroke-width="5"/>
<defs>
<clipPath id="clip0_11_391">
<rect width="193" height="193" fill="white" transform="translate(62)"/>
</clipPath>
</defs>
</svg>
