<svg xmlns="http://www.w3.org/2000/svg" version="1.1" xmlns:xlink="http://www.w3.org/1999/xlink" xmlns:svgjs="http://svgjs.com/svgjs" width="512" height="512" x="0" y="0" viewBox="0 0 512 512" style="enable-background:new 0 0 512 512" xml:space="preserve" class=""><g><path fill="#f7f7f7" d="M458.125 277.279H82.622c-15.876 0-28.746-12.872-28.746-28.749 0-15.878 12.87-28.749 28.746-28.749h375.503c-9.235 17.88-9.235 39.617 0 57.498z" data-original="#f7f7f7" class=""></path><path fill="#efefef" d="M458.125 219.78H82.622 427.22c-9.235 17.881-9.235 39.618 0 57.499h30.905c-9.235-17.881-9.235-39.618 0-57.499z" data-original="#efefef"></path><path fill="#ff815c" d="M86.809 301.224c-14.151 0-27.441-5.551-37.424-15.631-9.979-10.078-15.4-23.425-15.264-37.581.28-28.77 24.175-52.176 53.268-52.176h374.923c8.585 0 15.568 6.984 15.568 15.569s-6.984 15.569-15.568 15.569H86.809c-11.884 0-21.553 9.67-21.553 21.555s9.669 21.555 21.553 21.555h375.504c8.585 0 15.568 6.984 15.568 15.569s-6.984 15.569-15.568 15.569H86.809z" data-original="#ff815c" class=""></path><path fill="#f7f7f7" d="M493.218 488.055H55.903c-15.876 0-28.746-12.872-28.746-28.749 0-15.878 12.87-28.749 28.746-28.749h437.314c-9.234 17.88-9.234 39.618.001 57.498z" data-original="#f7f7f7" class=""></path><path fill="#efefef" d="M493.218 430.557h-30.905c-9.235 17.881-9.235 39.618 0 57.499h30.905c-9.235-17.881-9.235-39.619 0-57.499z" data-original="#efefef"></path><path fill="#ffe66b" d="M55.903 512c-14.151 0-27.441-5.551-37.424-15.631-9.979-10.078-15.4-23.425-15.264-37.581.28-28.77 24.175-52.176 53.268-52.176h436.734c8.585 0 15.568 6.984 15.568 15.569s-6.984 15.569-15.568 15.569H55.903c-11.884 0-21.553 9.67-21.553 21.555 0 11.886 9.669 21.555 21.553 21.555h437.314c8.585 0 15.568 6.984 15.568 15.57 0 8.585-6.984 15.569-15.568 15.569H55.903z" data-original="#ffe66b" class=""></path><path fill="#f7f7f7" d="M18.782 325.168h437.314c15.876 0 28.746 12.872 28.746 28.749 0 15.878-12.87 28.749-28.746 28.749H18.782c9.235-17.88 9.235-39.617 0-57.498z" data-original="#f7f7f7" class=""></path><path fill="#c9f0ff" d="M18.782 406.612c-8.584 0-15.568-6.984-15.568-15.569s6.984-15.569 15.568-15.569h437.314c11.884 0 21.553-9.67 21.553-21.555 0-11.886-9.669-21.555-21.553-21.555H18.782c-8.584 0-15.568-6.984-15.568-15.569s6.984-15.569 15.568-15.569h437.315c14.151 0 27.441 5.551 37.423 15.631 9.98 10.079 15.399 23.425 15.264 37.581-.28 28.77-24.175 52.176-53.268 52.176H18.782z" data-original="#c9f0ff" class=""></path><path fill="#b5eaff" d="M493.52 316.855c-9.982-10.079-23.272-15.631-37.423-15.631h-30.905c14.151 0 27.441 5.551 37.423 15.631 9.98 10.079 15.399 23.425 15.264 37.581-.28 28.77-24.175 52.176-53.268 52.176h30.905c29.093 0 52.988-23.406 53.268-52.176.135-14.156-5.284-27.502-15.264-37.581z" data-original="#b5eaff"></path><path fill="#288a9a" d="M400.225 195.836h-288.45L142.68 91.778h226.64z" data-original="#288a9a" class=""></path><path fill="#3498ac" d="M229.363 3.44 24.348 57.29c-10.99 2.887-10.99 18.488 0 21.375l205.015 53.85a104.842 104.842 0 0 0 53.274 0l205.015-53.85c10.99-2.887 10.99-18.488 0-21.375L282.637 3.44a104.842 104.842 0 0 0-53.274 0z" data-original="#3498ac"></path><path fill="#288a9a" d="M487.652 57.29 282.637 3.44a104.842 104.842 0 0 0-53.274 0l-31.152 8.182c14.36-2.3 29.08-1.594 43.218 2.119l205.015 53.85c10.99 2.887 10.99 18.488 0 21.375l41.207-10.302c10.992-2.886 10.992-18.487.001-21.374z" data-original="#288a9a" class=""></path><path fill="#f7f7f7" d="M325.935 204.82a7.726 7.726 0 0 1-7.726-7.726v-72.396L250.81 63.585a7.727 7.727 0 0 1 10.38-11.448l69.935 63.413a7.727 7.727 0 0 1 2.536 5.724v75.82a7.726 7.726 0 0 1-7.726 7.726z" data-original="#f7f7f7" class=""></path><path fill="#ffe66b" d="M348.168 240.547h-44.467s0-67.104 22.233-67.104c22.234 0 22.234 67.104 22.234 67.104z" data-original="#ffe66b" class=""></path><path fill="#3498ac" d="M124.831 437.75 88.08 457.031V332.362h36.751z" data-original="#3498ac"></path><path fill="#ffe66b" d="M271.275 272.411c-9.608 5.884-20.963 5.892-30.551 0v-21.963c0-8.436 6.839-15.275 15.275-15.275s15.275 6.839 15.275 15.275v21.963z" data-original="#ffe66b" class=""></path></g></svg>